OpenSim_Sub03_CSStiffKnee_GRF.mot
version=1
nRows=46
nColumns=19
inDegrees=no
endheader
time	lFx	lFy	lFz	lCOPx	lCOPy	lCOPz	rFx	rFy	rFz	rCOPx	rCOPy	rCOPz	lMx	lMy	lMz	rMx	rMy	rMz
9.09000000	-30.84089698	729.05100780	75.16240207	0.65894157	0	-0.66072072	0.27429305	1.40948202	0.33920306	-0.00236849	0	0.00045123	0	-10.46417697	0	0	0.00226259	0.00000000
9.10000000	-29.19585442	709.27774968	72.23148426	0.65774347	0	-0.66117482	0.15706983	1.65067748	0.16502566	-0.00012200	0	-0.00040261	0	-10.11647162	0	0	0.00223260	0.00000000
9.11000000	-27.64114186	691.53926727	69.05264584	0.65598308	0	-0.66146764	0.05503636	1.72797962	0.06331341	0.00052620	0	-0.00044378	0	-9.74203636	0	0	0.00120431	0.00000000
9.12000000	-25.88858907	676.68312990	65.90700938	0.65320597	0	-0.66160990	-0.00711788	1.70216367	0.01873729	0.00045665	0	-0.00025181	0	-9.33500152	0	0	0.00038272	-0.00000000
9.13000000	-24.09873350	664.95825455	63.18867640	0.64947669	0	-0.66164528	-0.03008633	1.57709010	0.00092387	0.00022961	0	-0.00008610	0	-8.94825100	0	0	-0.00000887	-0.00000000
9.14000000	-22.57340208	656.31729554	61.16236418	0.64500939	0	-0.66160985	0.00175281	1.41037314	0.08349567	0.00006479	0	-0.00000305	0	-8.58407681	0	0	-0.00010808	-0.00000000
9.15000000	-21.30771763	650.47817914	59.93839452	0.63985005	0	-0.66154523	0.08516409	1.30181717	0.14801211	-0.00000829	0	0.00002025	0	-8.29712509	0	0	-0.00008485	-0.00000000
9.16000000	-20.16451492	646.74033143	59.44817318	0.63402209	0	-0.66149518	0.16155312	1.26284169	0.20861884	-0.00002377	0	0.00001714	0	-8.14035365	0	0	-0.00003994	-0.00000000
9.17000000	-19.03003903	644.45033358	59.49636054	0.62781958	0	-0.66152466	0.19539083	1.28981730	0.29440215	-0.00001699	0	0.00000848	0	-8.11752196	0	0	-0.00000985	0.00000000
9.18000000	-17.95945030	643.49439459	59.90321283	0.62136283	0	-0.66166121	0.18552854	1.38471418	0.31072227	-0.00000744	0	0.00000232	0	-8.19272811	0	0	0.00000259	-0.00000000
9.19000000	-16.91595734	643.91729598	60.40374876	0.61445415	0	-0.66186636	0.15512422	1.52198892	0.21690898	-0.00000152	0	-0.00000036	0	-8.28004588	0	0	0.00000468	0.00000000
9.20000000	-15.78631271	645.56971039	60.86349224	0.60701929	0	-0.66208612	0.13752693	1.68193550	0.07285233	0.00000074	0	-0.00000091	0	-8.35402781	0	0	0.00000309	0.00000000
9.21000000	-14.38127314	648.14125582	61.19942794	0.59941162	0	-0.66226474	0.15036311	1.74871493	-0.06345756	0.00000099	0	-0.00000063	0	-8.40213661	0	0	0.00000126	-0.00000000
9.22000000	-12.64289071	651.48605617	61.37790093	0.59188100	0	-0.66239610	0.17023957	1.64097742	-0.09652807	0.00000059	0	-0.00000026	0	-8.40921175	0	0	0.00000022	0.00000000
9.23000000	-10.39337988	655.49767575	61.30406866	0.58428111	0	-0.66253065	0.16540189	1.44750493	-0.11652896	0.00000017	0	-0.00000002	0	-8.36110964	0	0	-0.00000012	0.00000000
9.24000000	-7.42028132	660.02706439	60.91513501	0.57639800	0	-0.66267948	0.15586544	1.23432374	-0.15439192	-0.00000007	0	0.00000008	0	-8.24553472	0	0	-0.00000008	-0.00000000
9.25000000	-3.79279612	664.82198097	60.32143340	0.56826795	0	-0.66280847	0.14291853	1.06628244	-0.11773596	-0.00000010	0	0.00000007	0	-8.09262674	0	0	0.00000004	-0.00000000
9.26000000	0.05033171	669.67235379	59.76370592	0.56007775	0	-0.66291233	0.13113275	0.94122354	-0.06206296	0.00000011	0	-0.00000005	0	-7.93107779	0	0	-0.00000003	0.00000000
9.27000000	3.76286393	674.22615228	59.46075168	0.55178315	0	-0.66299793	0.12948534	0.86556946	-0.02655368	0.00000069	0	-0.00000035	0	-7.85089178	0	0	-0.00000053	-0.00000000
9.28000000	7.28231120	678.43445601	59.53081290	0.54345912	0	-0.66310611	0.14491101	0.73638703	-0.01179306	0.00000158	0	-0.00000081	0	-7.88270675	0	0	-0.00000163	0.00000000
9.29000000	10.66586078	683.05782077	60.04317057	0.53519851	0	-0.66329121	0.17753466	0.60971151	-0.00446620	0.00000217	0	-0.00000113	0	-8.00590275	0	0	-0.00000302	0.00000000
9.30000000	13.88821801	689.47266660	60.98719537	0.52702267	0	-0.66356023	0.18546599	0.58168000	0.03400343	0.00000060	0	-0.00000037	0	-8.22394885	0	0	-0.00000304	0.00000000
9.31000000	17.03140296	699.01236281	62.14553508	0.51875698	0	-0.66386791	0.15104100	0.65637495	0.07024216	-0.00000638	0	0.00000313	0	-8.48987801	0	0	0.00000217	0.00000000
9.32000000	20.45941284	711.95910858	63.17653456	0.51023472	0	-0.66411049	0.09466413	0.78298232	0.07717426	-0.00002181	0	0.00001097	0	-8.68447455	0	0	0.00001818	-0.00000000
9.33000000	24.39257160	727.28201304	63.96283365	0.50156183	0	-0.66422720	0.07117965	0.89022307	0.10897859	-0.00004250	0	0.00002170	0	-8.78455448	0	0	0.00004738	-0.00000000
9.34000000	28.84133972	743.28000953	64.59003041	0.49300231	0	-0.66424534	0.09951306	0.95968210	0.10492730	-0.00004731	0	0.00002478	0	-8.76359375	0	0	0.00007602	-0.00000000
9.35000000	33.70254992	758.59740303	65.29665270	0.48472584	0	-0.66424608	0.16366426	1.08561640	0.04534264	0.00001643	0	-0.00000650	0	-8.68528642	0	0	0.00005286	-0.00000000
9.36000000	39.06429111	772.24503945	66.22951529	0.47672766	0	-0.66425434	0.22799716	1.30497295	0.03981920	0.00022966	0	-0.00011382	0	-8.59913290	0	0	-0.00012656	0.00000000
9.37000000	44.73040992	783.72151685	67.41662156	0.46885780	0	-0.66429098	0.31612451	1.56715953	0.04702563	0.00064019	0	-0.00032353	0	-8.53923452	0	0	-0.00058757	-0.00000000
9.38000000	50.19533964	792.97429691	68.78824820	0.46113010	0	-0.66437162	0.42141824	1.80598099	0.06120516	0.00108741	0	-0.00055803	0	-8.55090973	0	0	-0.00131741	0.00000000
9.39000000	54.95421006	799.96914659	70.16346475	0.45354828	0	-0.66441415	0.48195190	1.91795515	0.09816319	0.00089870	0	-0.00048013	0	-8.62640925	0	0	-0.00180176	0.00000000
9.40000000	58.84514982	804.46876607	71.26588828	0.44617012	0	-0.66435403	0.43197125	1.77728824	0.06195009	-0.00137433	0	0.00064730	0	-8.71357099	0	0	-0.00051589	0.00000000
9.41000000	61.86662288	806.00852212	71.79132074	0.43906410	0	-0.66423934	0.12069055	1.17668229	-0.02321600	-0.00761166	0	0.00380063	0	-8.70715346	0	0	0.00525404	-0.00000000
9.42000000	64.13232327	803.95860737	71.60904316	0.43220515	0	-0.66411071	-0.67899834	0.07107862	-0.11120022	-0.01807173	0	0.00917109	0	-8.59165692	0	0	0.01802758	-0.00000000
9.43000000	65.75529744	797.77687703	70.78180066	0.42550132	0	-0.66400996	-2.01986562	-1.05568648	-0.18999562	-0.02641644	0	0.01364159	0	-8.44281860	0	0	0.03522117	0.00000000
9.44000000	67.11315300	786.96322405	69.38405327	0.41874271	0	-0.66399101	-3.13545990	-0.10446078	-0.03653560	-0.01227843	0	0.00695205	0	-8.31196226	0	0	0.03937831	0.00000000
9.45000000	68.59411528	771.29391865	67.51039566	0.41176442	0	-0.66410761	-1.74087748	7.85233518	0.78757993	0.06261000	0	-0.03046190	0	-8.19105917	0	0	-0.01310167	0.00000000
9.46000000	70.24051197	750.72485435	65.40520716	0.40468443	0	-0.66443694	4.86228805	31.04348125	2.74189420	0.23807373	0	-0.11954012	0	-8.11335966	0	0	-0.18939407	0.00000000
9.47000000	71.74353343	724.79007434	63.10548560	0.39761853	0	-0.66503092	15.29687977	77.66571089	5.63493000	0.49138391	0	-0.25038709	0	-7.96370230	0	0	-0.52938411	0
9.48000000	72.80436203	692.58624236	60.57788585	0.39047153	0	-0.66584817	20.94280136	147.42447582	6.56583105	0.69134536	0	-0.35608142	0	-7.77825684	0	0	-0.89851900	0
9.49000000	73.33844317	653.21707495	57.53773792	0.38313431	0	-0.66678776	14.85377851	228.50815799	1.03998251	0.78587419	0	-0.40680901	0	-7.52221734	0	0	-1.00109280	0.00000000
9.50000000	73.01244591	606.47881183	53.76376450	0.37573945	0	-0.66767930	-1.50187939	305.39579245	-10.24098816	0.81073327	0	-0.41917641	0	-7.24978841	0	0	-0.99530666	0
9.51000000	71.14160060	553.49111681	49.21057282	0.36875017	0	-0.66829156	-22.84505437	369.63836602	-22.96329475	0.80754547	0	-0.41523717	0	-7.03623617	0	0	-1.27917108	0
9.52000000	66.99274082	496.35179634	43.94713904	0.36259216	0	-0.66846251	-43.98256461	423.76546524	-33.31849067	0.79911719	0	-0.40849478	0	-6.88318313	0	0	-1.99847149	0
9.53000000	60.24039711	436.98053075	38.20308532	0.35728907	0	-0.66830574	-62.70366730	477.08704992	-40.32036804	0.79232504	0	-0.40383287	0	-6.85812192	0	0	-3.03989528	-0.00000000
9.54000000	51.04403516	376.93333568	32.31003409	0.35284543	0	-0.66841496	-78.58380904	538.41634073	-46.37807840	0.78679593	0	-0.40172300	0	-7.00449777	0	0	-3.99152232	0
